<?xml version="1.0" encoding="iso-8859-1"?>
<!-- Uploaded to: SVG Repo, www.svgrepo.com, Generator: SVG Repo Mixer Tools -->
<svg height="800px" width="800px" version="1.1" id="Layer_1" xmlns="http://www.w3.org/2000/svg" xmlns:xlink="http://www.w3.org/1999/xlink" 
	 viewBox="0 0 512 512" xml:space="preserve">
<path d="M512,180.52v198c0,35.2-28.8,64-64,64H64c-35.2,0-64-28.8-64-64v-198c0-35.2,28.8-64,64-64h384
	C483.2,116.52,512,145.32,512,180.52z"/>
<path style="fill:#666666;" d="M429.336,145.52v264H68.416v-264L429.336,145.52 M437.336,137.52H60.416v280h376.92V137.52
	L437.336,137.52z"/>
<g>
	<circle style="fill:#CCCCCC;" cx="30.176" cy="279.52" r="12"/>
	<path style="fill:#CCCCCC;" d="M488.272,252.384v54.264c0,7.496-6.064,13.568-13.568,13.568c-7.496,0-13.568-6.064-13.568-13.568
		v-54.264c0-7.496,6.064-13.568,13.568-13.568C482.208,238.824,488.272,244.888,488.272,252.384z"/>
</g>
<path style="fill:#FF583E;" d="M290.864,69.48c0,36.008-34.864,38.184-34.864,38.184s-34.864-2.176-34.864-38.184h-44.248
	l-62.424,32.128l24.584,69.224l35.608-15.52v178.952H256h81.352V155.312l35.608,15.52l24.584-69.376L335.12,69.48H290.864z"/>
<path d="M294.736,283.008l-38.656-29.864l-38.656,29.864l14.76-48.296l-38.312-29.52h47.272L256,156.56l14.848,48.632h47.272
	l-38.224,29.52L294.736,283.008z"/>
</svg>